# xmcd CD database file
# Copyright (C) 1993-1998 Ti Kan
# 
# Track frame offsets:
#     182
#     10445
#     22355
#     34022
#     43682
#     54397
#     65750
#     77045
#     89012
#     101767
# 
# Disc length: 1523 seconds
# 
# Revision: 1
# Processed by: cddbd v1.4b41PL1 Copyright (c) Steve Scherf et al.
# Submitted via: DiscPlay 4.0.4
# 
DISCID=8905f10a
DTITLE=Patsy Cline - In Care Of The Blues
DYEAR=1900
DGENRE=
TTITLE0=Three Cigarettes In An Ashtray
TTITLE1=Never No More
TTITLE2=In Care Of The Blues
TTITLE3=I'm Moving Along
TTITLE4=Gotta Lot Of Rhythm In My Soul
TTITLE5=That Wonderful Someone
TTITLE6=Cry Not For Me
TTITLE7=If I Could Only Stay Asleep
TTITLE8=Yes, I Understand
TTITLE9=Fingerprints
EXTD=
EXTT0=
EXTT1=
EXTT2=
EXTT3=
EXTT4=
EXTT5=
EXTT6=
EXTT7=
EXTT8=
EXTT9=
PLAYORDER=
